# xmcd CD database file
#
# Track frame offsets:
#	150
#	14389
#	30283
#	44454
#	61827
#	79257
#	97774
#	112813
#	134935
#	153793
#	171099
#
# Disc length: 2543 seconds
#
# Revision: 0
# Processed by: cddbd v1.5.1PL2 Copyright (c) Steve Scherf et al.
# Submitted via: CDex 1.50Beta6
#
DISCID=7d09ed0b
DTITLE=Spot of Blue - Livin' Life This Way
DYEAR=2006
DGENRE=Country
TTITLE0=Acey Deucey
TTITLE1=I'm Gonna Tell You Somethin'
TTITLE2=Pack It Up
TTITLE3=It Calls Your Name
TTITLE4=Just a Cowboy
TTITLE5=Spot of Blue
TTITLE6=Amber
TTITLE7=Angel of Destruction
TTITLE8=About You
TTITLE9=When They Arrange the Flowers
TTITLE10=Through Your Eyes
EXTD=YEAR: 2006
EXTT0=
EXTT1=
EXTT2=
EXTT3=
EXTT4=
EXTT5=
EXTT6=
EXTT7=
EXTT8=
EXTT9=
EXTT10=
PLAYORDER=
